<svg height="512pt" viewBox="0 -28 512 512" width="512pt" xmlns="http://www.w3.org/2000/svg"><path d="m456.8125 456.167969h-401.625c-26.335938 0-47.6875-21.351563-47.6875-47.6875 0-4.316407 3.496094-7.808594 7.808594-7.808594h481.382812c4.3125 0 7.808594 3.492187 7.808594 7.808594 0 26.335937-21.351562 47.6875-47.6875 47.6875zm0 0" fill="#ababab"/><path d="m496.691406 400.671875h-29.265625c-5.386719 20.429687-23.992187 35.496094-46.113281 35.496094-428.210938-.046875-401.78125.109375-405.042969-.121094 8.640625 12.175781 22.851563 20.121094 38.917969 20.121094h401.625c26.335938 0 47.6875-21.351563 47.6875-47.6875 0-4.316407-3.496094-7.808594-7.808594-7.808594zm0 0" fill="#949494"/><path d="m43 210.167969c-19.605469 0-35.5-15.894531-35.5-35.5v-48.5h71v48.5c0 19.605469-15.894531 35.5-35.5 35.5zm0 0" fill="#f94530"/><path d="m49.171875 126.167969v48.5c0 14.375-8.546875 26.757812-20.835937 32.339843 23.179687 10.523438 50.164062-6.289062 50.164062-32.339843v-48.5zm0 0" fill="#d93c2a"/><path d="m114 210.167969c-19.605469 0-35.5-15.894531-35.5-35.5v-48.5h71v48.5c0 19.605469-15.894531 35.5-35.5 35.5zm0 0" fill="#ebebeb"/><path d="m120.171875 126.167969v48.5c0 14.375-8.546875 26.757812-20.835937 32.339843 4.472656 2.027344 9.4375 3.160157 14.664062 3.160157 19.605469 0 35.5-15.894531 35.5-35.5v-48.5zm0 0" fill="#ccc"/><path d="m185 210.167969c-19.605469 0-35.5-15.894531-35.5-35.5v-48.5h71v48.5c0 19.605469-15.894531 35.5-35.5 35.5zm0 0" fill="#f94530"/><path d="m191.171875 126.167969v48.5c0 14.375-8.546875 26.757812-20.835937 32.339843 4.472656 2.027344 9.4375 3.160157 14.664062 3.160157 19.605469 0 35.5-15.894531 35.5-35.5v-48.5zm0 0" fill="#d93c2a"/><path d="m256 210.167969c-19.605469 0-35.5-15.894531-35.5-35.5v-48.5h71v48.5c0 19.605469-15.894531 35.5-35.5 35.5zm0 0" fill="#ebebeb"/><path d="m262.171875 126.167969v48.5c0 14.375-8.546875 26.757812-20.835937 32.339843 23.179687 10.523438 50.164062-6.289062 50.164062-32.339843v-48.5zm0 0" fill="#ccc"/><path d="m327 210.167969c-19.605469 0-35.5-15.894531-35.5-35.5v-48.5h71v48.5c0 19.605469-15.894531 35.5-35.5 35.5zm0 0" fill="#f94530"/><path d="m333.171875 126.167969v48.5c0 14.375-8.546875 26.757812-20.835937 32.339843 22.890624 10.394532 50.164062-6.003906 50.164062-32.339843v-48.5zm0 0" fill="#d93c2a"/><path d="m398 210.167969c-19.605469 0-35.5-15.894531-35.5-35.5v-48.5h71v48.5c0 19.605469-15.894531 35.5-35.5 35.5zm0 0" fill="#ebebeb"/><path d="m469 210.167969c-19.605469 0-35.5-15.894531-35.5-35.5v-48.5h71v48.5c0 19.605469-15.894531 35.5-35.5 35.5zm0 0" fill="#f94530"/><path d="m475.171875 126.167969v48.5c0 14.375-8.546875 26.757812-20.835937 32.339843 22.890624 10.394532 50.164062-6.003906 50.164062-32.339843v-48.5zm0 0" fill="#d93c2a"/><path d="m404.171875 126.167969v48.5c0 14.375-8.546875 26.757812-20.835937 32.339843 22.890624 10.394532 50.164062-6.003906 50.164062-32.339843v-48.5zm0 0" fill="#ccc"/><path d="m433.5 174.667969c0 19.605469-15.894531 35.5-35.5 35.5s-35.5-15.894531-35.5-35.5c0 19.605469-15.894531 35.5-35.5 35.5s-35.5-15.894531-35.5-35.5c0 19.605469-15.894531 35.5-35.5 35.5s-35.5-15.894531-35.5-35.5c0 19.605469-15.894531 35.5-35.5 35.5s-35.5-15.894531-35.5-35.5c0 19.605469-15.894531 35.5-35.5 35.5s-35.5-15.894531-35.5-35.5c0 18.253906-13.777344 33.28125-31.5 35.269531v190.734375h418v-190.734375c-17.722656-1.988281-31.5-17.015625-31.5-35.269531zm0 0" fill="#bdbdbd"/><path d="m433.5 174.667969c0 19.605469-15.894531 35.5-35.5 35.5s-35.5-15.894531-35.5-35.5c0 19.605469-15.894531 35.5-35.5 35.5s-35.5-15.894531-35.5-35.5c0 19.605469-15.894531 35.5-35.5 35.5s-35.5-15.894531-35.5-35.5c0 19.605469-15.894531 35.5-35.5 35.5s-35.5-15.894531-35.5-35.5c0 19.605469-15.894531 35.5-35.5 35.5s-35.5-15.894531-35.5-35.5c0 18.253906-13.777344 33.28125-31.5 35.269531v31.007812c17.722656-1.988281 31.5-17.023437 31.5-35.277343 0 19.605469 15.894531 35.5 35.5 35.5s35.5-15.894531 35.5-35.5c0 19.605469 15.894531 35.5 35.5 35.5s35.5-15.894531 35.5-35.5c0 19.605469 15.894531 35.5 35.5 35.5s35.5-15.894531 35.5-35.5c0 19.605469 15.894531 35.5 35.5 35.5s35.5-15.894531 35.5-35.5c0 19.605469 15.894531 35.5 35.5 35.5s35.5-15.894531 35.5-35.5c0 18.253906 13.777344 33.289062 31.5 35.277343v-31.007812c-17.722656-1.988281-31.5-17.015625-31.5-35.269531zm0 0" fill="#a3a3a3"/><path d="m456.84375 30.644531c-9.367188-18.777343-28.546875-30.644531-49.535156-30.644531h-302.617188c-20.984375 0-40.167968 11.867188-49.535156 30.644531l-47.65625 95.523438h497zm0 0" fill="#f94530"/><path d="m55.15625 54.644531c9.367188-18.777343 28.546875-30.644531 49.535156-30.644531h302.617188c20.984375 0 40.167968 11.867188 49.535156 30.644531l35.683594 71.523438h11.972656l-47.65625-95.523438c-9.367188-18.777343-28.546875-30.644531-49.535156-30.644531h-302.617188c-20.984375 0-40.167968 11.867188-49.535156 30.644531l-47.65625 95.523438h11.972656zm0 0" fill="#d93c2a"/><path d="m398 210.167969c-19.605469 0-35.5-15.894531-35.5-35.5 0 19.605469-15.894531 35.5-35.5 35.5s-35.5-15.894531-35.5-35.5c0 19.605469-15.894531 35.5-35.5 35.5s-35.5-15.894531-35.5-35.5c0 19.605469-15.894531 35.5-35.5 35.5s-35.5-15.894531-35.5-35.5c0 19.605469-15.894531 35.5-35.5 35.5-14.09375 0-26.265625-8.214844-32-20.113281v171.34375c0 4.039062 3.273438 7.3125 7.3125 7.3125 12.15625 0 344.683594 0 333.375 0 4.039062 0 7.3125-3.273438 7.3125-7.3125v-171.339844c-5.734375 11.898437-17.90625 20.109375-32 20.109375zm0 0" fill="#58caee"/><path d="m398 210.167969c-19.605469 0-35.5-15.894531-35.5-35.5 0 19.605469-15.894531 35.5-35.5 35.5s-35.5-15.894531-35.5-35.5c0 19.605469-15.894531 35.5-35.5 35.5s-35.5-15.894531-35.5-35.5c0 19.605469-15.894531 35.5-35.5 35.5s-35.5-15.894531-35.5-35.5c0 19.605469-15.894531 35.5-35.5 35.5-14.09375 0-26.265625-8.214844-32-20.113281v31c5.734375 11.898437 17.90625 20.113281 32 20.113281 19.605469 0 35.5-15.894531 35.5-35.5 0 19.605469 15.894531 35.5 35.5 35.5s35.5-15.894531 35.5-35.5c0 19.605469 15.894531 35.5 35.5 35.5s35.5-15.894531 35.5-35.5c0 19.605469 15.894531 35.5 35.5 35.5s35.5-15.894531 35.5-35.5c0 19.605469 15.894531 35.5 35.5 35.5 14.09375 0 26.265625-8.214844 32-20.113281v-31c-5.734375 11.902343-17.90625 20.113281-32 20.113281zm0 0" fill="#4cafcf"/><path d="m256.96875 420.917969h-41.335938c-4.140624 0-7.5 3.359375-7.5 7.5 0 4.144531 3.359376 7.5 7.5 7.5h41.335938c4.140625 0 7.5-3.355469 7.5-7.5 0-4.140625-3.359375-7.5-7.5-7.5zm0 0" fill="#5c5c5c"/><path d="m296.300781 420.917969h-11.332031c-4.144531 0-7.5 3.359375-7.5 7.5 0 4.144531 3.355469 7.5 7.5 7.5h11.332031c4.140625 0 7.5-3.355469 7.5-7.5 0-4.140625-3.359375-7.5-7.5-7.5zm0 0" fill="#5c5c5c"/><path d="m504.5 133.667969h-497c-4.140625 0-7.5-3.359375-7.5-7.5 0-4.144531 3.359375-7.5 7.5-7.5h497c4.140625 0 7.5 3.355469 7.5 7.5 0 4.140625-3.359375 7.5-7.5 7.5zm0 0" fill="#ffb30f"/></svg>